If you care to share, you should love to seed,

please Seed what you leech and make the speed Faster with your speed,

and remember to visit http:// www . Speed . cd



 
http://img580.imageshack.us/img580/376/christmascarol.png


A.Christmas.Carol.2009.DVDRip.Xvid.AC3.DiVERSiTY

[info]
[nfo][font=Courier New]   
Complete name                    : A.Christmas.Carol.2009.DVDRip.Xvid.AC3.DiVERSiTY
Format                           : AVI
Format/Info                      : Audio Video Interleave
Format profile                   : OpenDML
File size                        : 745 MB
Duration                         : 1h 35mn
Overall bit rate                 : 1 086 Kbps
Writing application              : AVI-Mux GUI 1.17.8.3, Feb 16 201019:42:50
Source                           : DVDR-iGNiTiON
Encoder                          : Hibees

[url]http://www.imdb.com/title/tt1067106/[/url]



[color=green]Video[/color]

Format                           : MPEG-4 Visual
Format profile                   : Streaming Video@L1
Format settings, BVOP            : Yes
Format settings, QPel            : Yes
Format settings, GMC             : No warppoints
Format settings, Matrix          : Default
Codec ID                         : XVID
Codec ID/Hint                    : XviD
Duration                         : 1h 35mn
Bit rate                         : 825 Kbps
Width                            : 720 pixels
Height                           : 304 pixels
Display aspect ratio             : 2.35
Frame rate                       : 23.976 fps
Resolution                       : 24 bits
Colorimetry                      : 4:2:0
Scan type                        : Progressive
Bits/(Pixel*Frame)               : 0.157
Stream size                      : 565 MiB (76%)
Writing library                  : XviD 1.2.1 (UTC 2008-12-04)


[color=green]Audio[/color]

Format                           : AC-3
Format/Info                      : Audio Coding 3
Codec ID                         : 2000
Duration                         : 1h 35mn
Bit rate mode                    : Constant
Bit rate                         : 256 Kbps
Channel(s)                       : 2 channels
Channel positions                : L R
Sampling rate                    : 48.0 KHz
Stream size                      : 175 MiB (24%)
Alignment                        : Aligned on interleaves
Interleave, duration             : 64 ms (1.53 video frames)
Interleave, preload duration     : 192 ms
Title                            : T_2 Audio english



[cast]

Jim Carrey                       : Scrooge / Ghost of Christmas Past / Scrooge as a Young Boy / 
Steve Valentine                  : Funerary Undertaker / Topper
Daryl Sabara                     : Undertaker's Apprentice / Tattered Caroler / Beggar Boy 
Sage Ryan                        : Tattered Caroler
Amber Gainey Meade               : Tattered Caroler / Well-Dressed Caroler 


[plot]

An animated retelling of Charles Dickens' classic novel about a Victorian-era miser
taken on a journey of self-redemption, courtesy of several mysterious Christmas apparitions. 


[note]
[color=red]
Enjoy

Dont forget to thank the uploader [/color][/nfo]


Greets to:

*THC*,PrisM,DiGiTaL iNK,ViSiON,LEGi0N,FLAWL3SS,Rx,Hibees,xXTHORNXx,Noir,IMAGiNE
PDU,ELEKTRI4KA,KART3LDVD,CTFX,202122, StevieL,skrufern

All the people that make p2p what it is...THANKS  



[screens]

[IMG]http://img84.imageshack.us/img84/2360/achristmascarol2009avis.jpg[/IMG]
[IMG]http://img823.imageshack.us/img823/2360/achristmascarol2009avis.jpg[/IMG]
[IMG]http://img573.imageshack.us/img573/2360/achristmascarol2009avis.jpg[/IMG]
[IMG]http://img829.imageshack.us/img829/2360/achristmascarol2009avis.jpg[/IMG]
[IMG]http://img12.imageshack.us/img12/2360/achristmascarol2009avis.jpg[/IMG]
[IMG]http://img225.imageshack.us/img225/2360/achristmascarol2009avis.jpg[/IMG]
